<svg width="1440" height="290" viewBox="0 0 1440 290" fill="none" xmlns="http://www.w3.org/2000/svg">
<g opacity="0.5">
<mask id="mask0_324_18" style="mask-type:luminance" maskUnits="userSpaceOnUse" x="321" y="66" width="86" height="88">
<path d="M394 141.097C410.569 124.066 410.569 96.4543 394 79.4236C377.431 62.3929 350.569 62.3929 334 79.4236C317.431 96.4543 317.431 124.066 334 141.097C350.569 158.128 377.431 158.128 394 141.097Z" fill="white"/>
</mask>
<g mask="url(#mask0_324_18)">
<path d="M322.68 36.6646L175.434 188.018" stroke="#DCDCDC" stroke-width="2" stroke-linecap="round" stroke-linejoin="round"/>
<path d="M328.64 36.6646L181.393 188.018" stroke="#DCDCDC" stroke-width="2" stroke-linecap="round" stroke-linejoin="round"/>
<path d="M334.6 36.6646L187.345 188.018" stroke="#DCDCDC" stroke-width="2" stroke-linecap="round" stroke-linejoin="round"/>
<path d="M340.551 36.6646L193.305 188.018" stroke="#DCDCDC" stroke-width="2" stroke-linecap="round" stroke-linejoin="round"/>
<path d="M346.511 36.6646L199.265 188.018" stroke="#DCDCDC" stroke-width="2" stroke-linecap="round" stroke-linejoin="round"/>
<path d="M352.471 36.6646L205.216 188.018" stroke="#DCDCDC" stroke-width="2" stroke-linecap="round" stroke-linejoin="round"/>
<path d="M358.423 36.6646L211.176 188.018" stroke="#DCDCDC" stroke-width="2" stroke-linecap="round" stroke-linejoin="round"/>
<path d="M364.383 36.6646L217.136 188.018" stroke="#DCDCDC" stroke-width="2" stroke-linecap="round" stroke-linejoin="round"/>
<path d="M370.343 36.6646L223.088 188.018" stroke="#DCDCDC" stroke-width="2" stroke-linecap="round" stroke-linejoin="round"/>
<path d="M376.294 36.6646L229.047 188.018" stroke="#DCDCDC" stroke-width="2" stroke-linecap="round" stroke-linejoin="round"/>
<path d="M382.254 36.6646L235.007 188.018" stroke="#DCDCDC" stroke-width="2" stroke-linecap="round" stroke-linejoin="round"/>
<path d="M388.214 36.6646L240.959 188.018" stroke="#DCDCDC" stroke-width="2" stroke-linecap="round" stroke-linejoin="round"/>
<path d="M394.165 36.6646L246.919 188.018" stroke="#DCDCDC" stroke-width="2" stroke-linecap="round" stroke-linejoin="round"/>
<path d="M400.125 36.6646L252.879 188.018" stroke="#DCDCDC" stroke-width="2" stroke-linecap="round" stroke-linejoin="round"/>
<path d="M406.085 36.6646L258.83 188.018" stroke="#DCDCDC" stroke-width="2" stroke-linecap="round" stroke-linejoin="round"/>
<path d="M412.037 36.6646L264.79 188.018" stroke="#DCDCDC" stroke-width="2" stroke-linecap="round" stroke-linejoin="round"/>
<path d="M417.996 36.6646L270.75 188.018" stroke="#DCDCDC" stroke-width="2" stroke-linecap="round" stroke-linejoin="round"/>
<path d="M423.956 36.6646L276.701 188.018" stroke="#DCDCDC" stroke-width="2" stroke-linecap="round" stroke-linejoin="round"/>
<path d="M429.908 36.6646L282.661 188.018" stroke="#DCDCDC" stroke-width="2" stroke-linecap="round" stroke-linejoin="round"/>
<path d="M435.868 36.6646L288.621 188.018" stroke="#DCDCDC" stroke-width="2" stroke-linecap="round" stroke-linejoin="round"/>
<path d="M441.828 36.6646L294.573 188.018" stroke="#DCDCDC" stroke-width="2" stroke-linecap="round" stroke-linejoin="round"/>
<path d="M447.779 36.6646L300.532 188.018" stroke="#DCDCDC" stroke-width="2" stroke-linecap="round" stroke-linejoin="round"/>
<path d="M453.739 36.6646L306.492 188.018" stroke="#DCDCDC" stroke-width="2" stroke-linecap="round" stroke-linejoin="round"/>
<path d="M459.699 36.6646L312.452 188.018" stroke="#DCDCDC" stroke-width="2" stroke-linecap="round" stroke-linejoin="round"/>
<path d="M465.65 36.6646L318.404 188.018" stroke="#DCDCDC" stroke-width="2" stroke-linecap="round" stroke-linejoin="round"/>
<path d="M471.61 36.6646L324.364 188.018" stroke="#DCDCDC" stroke-width="2" stroke-linecap="round" stroke-linejoin="round"/>
<path d="M477.57 36.6646L330.324 188.018" stroke="#DCDCDC" stroke-width="2" stroke-linecap="round" stroke-linejoin="round"/>
<path d="M483.53 36.6646L336.275 188.018" stroke="#DCDCDC" stroke-width="2" stroke-linecap="round" stroke-linejoin="round"/>
<path d="M489.482 36.6646L342.235 188.018" stroke="#DCDCDC" stroke-width="2" stroke-linecap="round" stroke-linejoin="round"/>
<path d="M495.442 36.6646L348.195 188.018" stroke="#DCDCDC" stroke-width="2" stroke-linecap="round" stroke-linejoin="round"/>
<path d="M501.402 36.6646L354.146 188.018" stroke="#DCDCDC" stroke-width="2" stroke-linecap="round" stroke-linejoin="round"/>
<path d="M507.353 36.6646L360.106 188.018" stroke="#DCDCDC" stroke-width="2" stroke-linecap="round" stroke-linejoin="round"/>
<path d="M513.313 36.6646L366.066 188.018" stroke="#DCDCDC" stroke-width="2" stroke-linecap="round" stroke-linejoin="round"/>
<path d="M519.273 36.6646L372.018 188.018" stroke="#DCDCDC" stroke-width="2" stroke-linecap="round" stroke-linejoin="round"/>
<path d="M525.224 36.6646L377.978 188.018" stroke="#DCDCDC" stroke-width="2" stroke-linecap="round" stroke-linejoin="round"/>
</g>
</g>
<path d="M1365 41.1556C1365 41.5631 1364.89 41.9621 1364.67 42.3019C1364.45 42.6416 1364.14 42.9069 1363.77 43.0638C1363.4 43.2208 1363 43.2624 1362.61 43.1834C1362.22 43.1045 1361.87 42.9085 1361.59 42.6203C1361.31 42.3321 1361.11 41.9648 1361.04 41.565C1360.96 41.1652 1361 40.7509 1361.15 40.3748C1361.31 39.9987 1361.57 39.6777 1361.9 39.4527C1362.23 39.2276 1362.61 39.1087 1363.01 39.1109C1363.27 39.1109 1363.53 39.1637 1363.77 39.2665C1364.01 39.3693 1364.23 39.5199 1364.42 39.7098C1364.6 39.8997 1364.75 40.125 1364.85 40.3731C1364.95 40.6212 1365 40.8871 1365 41.1556Z" fill="#100C14" fill-opacity="0.18"/>
<path d="M1375.86 41.1666C1375.86 41.5732 1375.74 41.9707 1375.52 42.3088C1375.3 42.6469 1374.99 42.9103 1374.63 43.0659C1374.26 43.2215 1373.86 43.2622 1373.47 43.1829C1373.08 43.1036 1372.73 42.9078 1372.45 42.6203C1372.17 42.3328 1371.98 41.9665 1371.9 41.5677C1371.82 41.1689 1371.86 40.7556 1372.01 40.3799C1372.16 40.0043 1372.42 39.6832 1372.75 39.4573C1373.08 39.2314 1373.46 39.1108 1373.86 39.1108C1374.12 39.1108 1374.38 39.164 1374.63 39.2673C1374.87 39.3706 1375.09 39.5221 1375.27 39.713C1375.46 39.9039 1375.61 40.1305 1375.71 40.3799C1375.81 40.6293 1375.86 40.8966 1375.86 41.1666Z" fill="#100C14" fill-opacity="0.18"/>
<path d="M1386.68 41.1666C1386.68 41.5732 1386.56 41.9707 1386.34 42.3088C1386.12 42.6469 1385.81 42.9103 1385.45 43.0659C1385.08 43.2215 1384.68 43.2622 1384.29 43.1829C1383.9 43.1036 1383.55 42.9078 1383.27 42.6203C1382.99 42.3328 1382.8 41.9665 1382.72 41.5677C1382.64 41.1689 1382.68 40.7556 1382.83 40.3799C1382.98 40.0043 1383.24 39.6832 1383.57 39.4573C1383.9 39.2314 1384.28 39.1108 1384.68 39.1108C1384.94 39.1108 1385.2 39.164 1385.45 39.2673C1385.69 39.3706 1385.91 39.5221 1386.09 39.713C1386.28 39.9039 1386.43 40.1305 1386.53 40.3799C1386.63 40.6293 1386.68 40.8966 1386.68 41.1666Z" fill="#100C14" fill-opacity="0.18"/>
<path d="M1397.49 41.1555C1397.49 41.5626 1397.38 41.9611 1397.16 42.3007C1396.94 42.6402 1396.63 42.9054 1396.26 43.0627C1395.9 43.22 1395.5 43.2623 1395.11 43.1843C1394.72 43.1062 1394.36 42.9113 1394.08 42.6242C1393.8 42.3371 1393.61 41.9709 1393.53 41.5718C1393.45 41.1727 1393.49 40.7587 1393.64 40.3825C1393.79 40.0062 1394.05 39.6844 1394.38 39.4581C1394.71 39.2317 1395.09 39.1108 1395.49 39.1108C1396.02 39.1108 1396.53 39.3259 1396.9 39.7091C1397.28 40.0922 1397.49 40.6122 1397.49 41.1555Z" fill="#100C14" fill-opacity="0.18"/>
<path d="M1408.31 41.1555C1408.31 41.5626 1408.2 41.9611 1407.98 42.3007C1407.76 42.6402 1407.45 42.9054 1407.08 43.0627C1406.72 43.22 1406.32 43.2623 1405.93 43.1843C1405.54 43.1062 1405.18 42.9113 1404.9 42.6242C1404.62 42.3371 1404.43 41.9709 1404.35 41.5718C1404.27 41.1727 1404.31 40.7587 1404.46 40.3825C1404.61 40.0062 1404.87 39.6844 1405.2 39.4581C1405.53 39.2317 1405.91 39.1108 1406.31 39.1108C1406.84 39.1108 1407.35 39.3259 1407.72 39.7091C1408.1 40.0922 1408.31 40.6122 1408.31 41.1555Z" fill="#100C14" fill-opacity="0.18"/>
<path d="M1419.13 41.1556C1419.13 41.5631 1419.02 41.9621 1418.8 42.3019C1418.58 42.6416 1418.27 42.9069 1417.9 43.0638C1417.53 43.2208 1417.13 43.2624 1416.74 43.1834C1416.35 43.1045 1416 42.9085 1415.72 42.6203C1415.44 42.3321 1415.24 41.9648 1415.17 41.565C1415.09 41.1652 1415.13 40.7509 1415.28 40.3748C1415.44 39.9987 1415.69 39.6777 1416.03 39.4527C1416.36 39.2276 1416.74 39.1087 1417.14 39.1109C1417.4 39.1109 1417.66 39.1637 1417.9 39.2665C1418.14 39.3693 1418.36 39.5199 1418.55 39.7098C1418.73 39.8997 1418.88 40.125 1418.98 40.3731C1419.08 40.6212 1419.13 40.8871 1419.13 41.1556Z" fill="#100C14" fill-opacity="0.18"/>
<path d="M1430 41.1556C1430 41.5631 1429.89 41.9621 1429.67 42.3019C1429.45 42.6416 1429.14 42.9069 1428.77 43.0638C1428.4 43.2208 1428 43.2624 1427.61 43.1834C1427.22 43.1045 1426.87 42.9085 1426.59 42.6203C1426.31 42.3321 1426.11 41.9648 1426.04 41.565C1425.96 41.1652 1426 40.7509 1426.15 40.3748C1426.31 39.9987 1426.57 39.6777 1426.9 39.4527C1427.23 39.2276 1427.61 39.1087 1428.01 39.1109C1428.27 39.1109 1428.53 39.1637 1428.77 39.2665C1429.01 39.3693 1429.23 39.5199 1429.42 39.7098C1429.6 39.8997 1429.75 40.125 1429.85 40.3731C1429.95 40.6212 1430 40.8871 1430 41.1556Z" fill="#100C14" fill-opacity="0.18"/>
<path d="M1440.79 41.1666C1440.79 41.5732 1440.67 41.9707 1440.45 42.3088C1440.23 42.6469 1439.92 42.9103 1439.56 43.0659C1439.19 43.2215 1438.79 43.2622 1438.4 43.1829C1438.01 43.1036 1437.66 42.9078 1437.38 42.6203C1437.1 42.3328 1436.91 41.9665 1436.83 41.5677C1436.75 41.1689 1436.79 40.7556 1436.94 40.3799C1437.09 40.0043 1437.35 39.6832 1437.68 39.4573C1438.01 39.2314 1438.39 39.1108 1438.79 39.1108C1439.05 39.1108 1439.31 39.164 1439.56 39.2673C1439.8 39.3706 1440.02 39.5221 1440.2 39.713C1440.39 39.9039 1440.54 40.1305 1440.64 40.3799C1440.74 40.6293 1440.79 40.8966 1440.79 41.1666Z" fill="#100C14" fill-opacity="0.18"/>
<path d="M1365 56.0779C1365 56.485 1364.88 56.8828 1364.66 57.2211C1364.44 57.5595 1364.13 57.823 1363.76 57.9783C1363.4 58.1335 1362.99 58.1736 1362.61 58.0933C1362.22 58.0131 1361.86 57.8162 1361.58 57.5276C1361.3 57.239 1361.11 56.8717 1361.04 56.4721C1360.96 56.0726 1361 55.6589 1361.16 55.2835C1361.31 54.908 1361.57 54.5878 1361.9 54.3632C1362.23 54.1386 1362.61 54.0199 1363.01 54.0221C1363.27 54.0221 1363.53 54.0754 1363.77 54.1788C1364.02 54.2823 1364.24 54.4338 1364.42 54.6249C1364.61 54.8159 1364.75 55.0426 1364.85 55.292C1364.95 55.5414 1365 55.8085 1365 56.0779Z" fill="#100C14" fill-opacity="0.18"/>
<path d="M1375.86 56.089C1375.86 56.4951 1375.74 56.8915 1375.52 57.2281C1375.3 57.5647 1374.98 57.8264 1374.62 57.9803C1374.25 58.1342 1373.85 58.1734 1373.46 58.0928C1373.08 58.0122 1372.72 57.8156 1372.44 57.5276C1372.16 57.2397 1371.97 56.8733 1371.9 56.4748C1371.82 56.0764 1371.86 55.6636 1372.01 55.2886C1372.16 54.9136 1372.42 54.5932 1372.75 54.3678C1373.08 54.1424 1373.46 54.0221 1373.86 54.0221C1374.12 54.0221 1374.38 54.0756 1374.63 54.1797C1374.87 54.2837 1375.09 54.436 1375.28 54.6281C1375.46 54.8202 1375.61 55.0481 1375.71 55.2988C1375.81 55.5495 1375.86 55.8181 1375.86 56.089Z" fill="#100C14" fill-opacity="0.18"/>
<path d="M1386.68 56.089C1386.68 56.4951 1386.56 56.8915 1386.34 57.2281C1386.12 57.5647 1385.8 57.8264 1385.44 57.9803C1385.07 58.1342 1384.67 58.1734 1384.28 58.0928C1383.9 58.0122 1383.54 57.8156 1383.26 57.5276C1382.98 57.2397 1382.79 56.8733 1382.72 56.4748C1382.64 56.0764 1382.68 55.6636 1382.83 55.2886C1382.98 54.9136 1383.24 54.5932 1383.57 54.3678C1383.9 54.1424 1384.28 54.0221 1384.68 54.0221C1384.94 54.0221 1385.2 54.0756 1385.45 54.1797C1385.69 54.2837 1385.91 54.436 1386.1 54.6281C1386.28 54.8202 1386.43 55.0481 1386.53 55.2988C1386.63 55.5495 1386.68 55.8181 1386.68 56.089Z" fill="#100C14" fill-opacity="0.18"/>
<path d="M1397.49 56.0779C1397.49 56.4845 1397.37 56.882 1397.15 57.22C1396.93 57.5581 1396.62 57.8215 1396.26 57.9771C1395.89 58.1327 1395.49 58.1735 1395.1 58.0942C1394.71 58.0149 1394.36 57.8191 1394.08 57.5316C1393.8 57.2441 1393.61 56.8777 1393.53 56.4789C1393.45 56.0801 1393.49 55.6668 1393.64 55.2912C1393.79 54.9155 1394.05 54.5945 1394.38 54.3686C1394.71 54.1427 1395.09 54.0221 1395.49 54.0221C1395.75 54.0207 1396.01 54.0728 1396.26 54.1756C1396.5 54.2784 1396.72 54.4298 1396.91 54.621C1397.09 54.8122 1397.24 55.0393 1397.34 55.2894C1397.44 55.5395 1397.49 55.8075 1397.49 56.0779Z" fill="#100C14" fill-opacity="0.18"/>
<path d="M1408.31 56.0779C1408.31 56.4845 1408.19 56.882 1407.97 57.22C1407.75 57.5581 1407.44 57.8215 1407.08 57.9771C1406.71 58.1327 1406.31 58.1735 1405.92 58.0942C1405.53 58.0149 1405.18 57.8191 1404.9 57.5316C1404.62 57.2441 1404.43 56.8777 1404.35 56.4789C1404.27 56.0801 1404.31 55.6668 1404.46 55.2912C1404.61 54.9155 1404.87 54.5945 1405.2 54.3686C1405.53 54.1427 1405.91 54.0221 1406.31 54.0221C1406.57 54.0207 1406.83 54.0728 1407.08 54.1756C1407.32 54.2784 1407.54 54.4298 1407.73 54.621C1407.91 54.8122 1408.06 55.0393 1408.16 55.2894C1408.26 55.5395 1408.31 55.8075 1408.31 56.0779Z" fill="#100C14" fill-opacity="0.18"/>
<path d="M1419.13 56.0779C1419.13 56.485 1419.01 56.8828 1418.79 57.2211C1418.57 57.5595 1418.26 57.823 1417.89 57.9783C1417.53 58.1335 1417.12 58.1736 1416.74 58.0933C1416.35 58.0131 1415.99 57.8162 1415.71 57.5276C1415.43 57.239 1415.24 56.8717 1415.17 56.4721C1415.09 56.0726 1415.13 55.6589 1415.29 55.2835C1415.44 54.908 1415.7 54.5878 1416.03 54.3632C1416.36 54.1386 1416.74 54.0199 1417.14 54.0221C1417.4 54.0221 1417.66 54.0754 1417.9 54.1788C1418.15 54.2823 1418.37 54.4338 1418.55 54.6249C1418.74 54.8159 1418.88 55.0426 1418.98 55.292C1419.08 55.5414 1419.13 55.8085 1419.13 56.0779Z" fill="#100C14" fill-opacity="0.18"/>
<path d="M1430 56.0779C1430 56.485 1429.88 56.8828 1429.66 57.2211C1429.44 57.5595 1429.13 57.823 1428.76 57.9783C1428.4 58.1335 1427.99 58.1736 1427.61 58.0933C1427.22 58.0131 1426.86 57.8162 1426.58 57.5276C1426.3 57.239 1426.11 56.8717 1426.04 56.4721C1425.96 56.0726 1426 55.6589 1426.16 55.2835C1426.31 54.908 1426.57 54.5878 1426.9 54.3632C1427.23 54.1386 1427.61 54.0199 1428.01 54.0221C1428.27 54.0221 1428.53 54.0754 1428.77 54.1788C1429.02 54.2823 1429.24 54.4338 1429.42 54.6249C1429.61 54.8159 1429.75 55.0426 1429.85 55.292C1429.95 55.5414 1430 55.8085 1430 56.0779Z" fill="#100C14" fill-opacity="0.18"/>
<path d="M1440.79 56.089C1440.79 56.4951 1440.67 56.8915 1440.45 57.2281C1440.23 57.5647 1439.91 57.8264 1439.55 57.9803C1439.18 58.1342 1438.78 58.1734 1438.39 58.0928C1438.01 58.0122 1437.65 57.8156 1437.37 57.5276C1437.09 57.2397 1436.9 56.8733 1436.83 56.4748C1436.75 56.0764 1436.79 55.6636 1436.94 55.2886C1437.09 54.9136 1437.35 54.5932 1437.68 54.3678C1438.01 54.1424 1438.39 54.0221 1438.79 54.0221C1439.05 54.0221 1439.31 54.0756 1439.56 54.1797C1439.8 54.2837 1440.02 54.436 1440.21 54.6281C1440.39 54.8202 1440.54 55.0481 1440.64 55.2988C1440.74 55.5495 1440.79 55.8181 1440.79 56.089Z" fill="#100C14" fill-opacity="0.18"/>
<path d="M1365 70.9893C1365 71.3963 1364.88 71.7942 1364.66 72.1325C1364.44 72.4708 1364.13 72.7344 1363.76 72.8896C1363.4 73.0449 1362.99 73.0849 1362.61 73.0047C1362.22 72.9245 1361.86 72.7276 1361.58 72.439C1361.3 72.1504 1361.11 71.783 1361.04 71.3835C1360.96 70.984 1361 70.5703 1361.16 70.1949C1361.31 69.8194 1361.57 69.4991 1361.9 69.2746C1362.23 69.05 1362.61 68.9313 1363.01 68.9335C1363.27 68.9335 1363.53 68.9867 1363.77 69.0901C1364.02 69.1936 1364.24 69.3452 1364.42 69.5363C1364.61 69.7273 1364.75 69.954 1364.85 70.2034C1364.95 70.4527 1365 70.7198 1365 70.9893Z" fill="#100C14" fill-opacity="0.18"/>
<path d="M1375.86 71.0004C1375.86 71.407 1375.74 71.8038 1375.52 72.1406C1375.3 72.4775 1374.98 72.7392 1374.62 72.8928C1374.25 73.0463 1373.85 73.0848 1373.46 73.0033C1373.07 72.9219 1372.72 72.7241 1372.44 72.435C1372.16 72.146 1371.97 71.7786 1371.9 71.3794C1371.82 70.9802 1371.86 70.5671 1372.02 70.1923C1372.17 69.8175 1372.43 69.4978 1372.76 69.2738C1373.09 69.0497 1373.48 68.9313 1373.87 68.9335C1374.13 68.935 1374.39 68.9895 1374.64 69.0942C1374.88 69.1988 1375.1 69.3515 1375.28 69.5435C1375.47 69.7354 1375.61 69.9628 1375.71 70.2128C1375.81 70.4628 1375.86 70.7304 1375.86 71.0004Z" fill="#100C14" fill-opacity="0.18"/>
<path d="M1386.68 71.0004C1386.68 71.4065 1386.56 71.8029 1386.34 72.1395C1386.12 72.4761 1385.8 72.7378 1385.44 72.8917C1385.07 73.0456 1384.67 73.0847 1384.28 73.0042C1383.9 72.9236 1383.54 72.7269 1383.26 72.439C1382.98 72.151 1382.79 71.7847 1382.72 71.3862C1382.64 70.9877 1382.68 70.575 1382.83 70.2C1382.98 69.825 1383.24 69.5046 1383.57 69.2792C1383.9 69.0538 1384.28 68.9335 1384.68 68.9335C1384.94 68.9335 1385.2 68.987 1385.45 69.091C1385.69 69.195 1385.91 69.3474 1386.1 69.5395C1386.28 69.7316 1386.43 69.9595 1386.53 70.2102C1386.63 70.4609 1386.68 70.7295 1386.68 71.0004Z" fill="#100C14" fill-opacity="0.18"/>
<path d="M1397.49 70.9893C1397.49 71.3959 1397.37 71.7933 1397.15 72.1313C1396.93 72.4694 1396.62 72.7329 1396.26 72.8885C1395.89 73.0441 1395.49 73.0849 1395.1 73.0056C1394.71 72.9262 1394.36 72.7304 1394.08 72.4429C1393.8 72.1554 1393.61 71.7891 1393.53 71.3903C1393.45 70.9915 1393.49 70.5782 1393.64 70.2025C1393.79 69.8269 1394.05 69.5058 1394.38 69.2799C1394.71 69.054 1395.09 68.9335 1395.49 68.9335C1395.75 68.932 1396.01 68.9842 1396.26 69.087C1396.5 69.1898 1396.72 69.3412 1396.91 69.5323C1397.09 69.7235 1397.24 69.9507 1397.34 70.2008C1397.44 70.4509 1397.49 70.7189 1397.49 70.9893Z" fill="#100C14" fill-opacity="0.18"/>
<path d="M1408.31 70.9893C1408.31 71.3959 1408.19 71.7933 1407.97 72.1313C1407.75 72.4694 1407.44 72.7329 1407.08 72.8885C1406.71 73.0441 1406.31 73.0849 1405.92 73.0056C1405.53 72.9262 1405.18 72.7304 1404.9 72.4429C1404.62 72.1554 1404.43 71.7891 1404.35 71.3903C1404.27 70.9915 1404.31 70.5782 1404.46 70.2025C1404.61 69.8269 1404.87 69.5058 1405.2 69.2799C1405.53 69.054 1405.91 68.9335 1406.31 68.9335C1406.57 68.932 1406.83 68.9842 1407.08 69.087C1407.32 69.1898 1407.54 69.3412 1407.73 69.5323C1407.91 69.7235 1408.06 69.9507 1408.16 70.2008C1408.26 70.4509 1408.31 70.7189 1408.31 70.9893Z" fill="#100C14" fill-opacity="0.18"/>
<path d="M1419.13 70.9893C1419.13 71.3963 1419.01 71.7942 1418.79 72.1325C1418.57 72.4708 1418.26 72.7344 1417.89 72.8896C1417.53 73.0449 1417.12 73.0849 1416.74 73.0047C1416.35 72.9245 1415.99 72.7276 1415.71 72.439C1415.43 72.1504 1415.24 71.783 1415.17 71.3835C1415.09 70.984 1415.13 70.5703 1415.29 70.1949C1415.44 69.8194 1415.7 69.4991 1416.03 69.2746C1416.36 69.05 1416.74 68.9313 1417.14 68.9335C1417.4 68.9335 1417.66 68.9867 1417.9 69.0901C1418.15 69.1936 1418.37 69.3452 1418.55 69.5363C1418.74 69.7273 1418.88 69.954 1418.98 70.2034C1419.08 70.4527 1419.13 70.7198 1419.13 70.9893Z" fill="#100C14" fill-opacity="0.18"/>
<path d="M1430 70.9893C1430 71.3963 1429.88 71.7942 1429.66 72.1325C1429.44 72.4708 1429.13 72.7344 1428.76 72.8896C1428.4 73.0449 1427.99 73.0849 1427.61 73.0047C1427.22 72.9245 1426.86 72.7276 1426.58 72.439C1426.3 72.1504 1426.11 71.783 1426.04 71.3835C1425.96 70.984 1426 70.5703 1426.16 70.1949C1426.31 69.8194 1426.57 69.4991 1426.9 69.2746C1427.23 69.05 1427.61 68.9313 1428.01 68.9335C1428.27 68.9335 1428.53 68.9867 1428.77 69.0901C1429.02 69.1936 1429.24 69.3452 1429.42 69.5363C1429.61 69.7273 1429.75 69.954 1429.85 70.2034C1429.95 70.4527 1430 70.7198 1430 70.9893Z" fill="#100C14" fill-opacity="0.18"/>
<path d="M1440.79 71.0004C1440.79 71.4065 1440.67 71.8029 1440.45 72.1395C1440.23 72.4761 1439.91 72.7378 1439.55 72.8917C1439.18 73.0456 1438.78 73.0847 1438.39 73.0042C1438.01 72.9236 1437.65 72.7269 1437.37 72.439C1437.09 72.151 1436.9 71.7847 1436.83 71.3862C1436.75 70.9877 1436.79 70.575 1436.94 70.2C1437.09 69.825 1437.35 69.5046 1437.68 69.2792C1438.01 69.0538 1438.39 68.9335 1438.79 68.9335C1439.05 68.9335 1439.31 68.987 1439.56 69.091C1439.8 69.195 1440.02 69.3474 1440.21 69.5395C1440.39 69.7316 1440.54 69.9595 1440.64 70.2102C1440.74 70.4609 1440.79 70.7295 1440.79 71.0004Z" fill="#100C14" fill-opacity="0.18"/>
<path d="M1365 85.9031C1365 86.3106 1364.89 86.7096 1364.67 87.0493C1364.45 87.3891 1364.14 87.6543 1363.77 87.8112C1363.4 87.9682 1363 88.0099 1362.61 87.9309C1362.22 87.8519 1361.87 87.6559 1361.59 87.3677C1361.31 87.0796 1361.11 86.7122 1361.04 86.3124C1360.96 85.9126 1361 85.4984 1361.15 85.1223C1361.31 84.7462 1361.57 84.4252 1361.9 84.2002C1362.23 83.9751 1362.61 83.8561 1363.01 83.8583C1363.54 83.8583 1364.04 84.0738 1364.42 84.4572C1364.79 84.8407 1365 85.3608 1365 85.9031Z" fill="#100C14" fill-opacity="0.18"/>
<path d="M1375.86 85.9141C1375.86 86.3207 1375.74 86.7181 1375.52 87.0562C1375.3 87.3942 1374.99 87.6578 1374.63 87.8134C1374.26 87.9689 1373.86 88.0097 1373.47 87.9303C1373.08 87.851 1372.73 87.6552 1372.45 87.3677C1372.17 87.0802 1371.98 86.7139 1371.9 86.3151C1371.82 85.9163 1371.86 85.503 1372.01 85.1273C1372.16 84.7517 1372.42 84.4307 1372.75 84.2048C1373.08 83.9789 1373.46 83.8583 1373.86 83.8583C1374.39 83.8583 1374.9 84.0749 1375.27 84.4604C1375.65 84.8459 1375.86 85.3689 1375.86 85.9141Z" fill="#100C14" fill-opacity="0.18"/>
<path d="M1386.68 85.9141C1386.68 86.3207 1386.56 86.7181 1386.34 87.0562C1386.12 87.3942 1385.81 87.6578 1385.45 87.8134C1385.08 87.9689 1384.68 88.0097 1384.29 87.9303C1383.9 87.851 1383.55 87.6552 1383.27 87.3677C1382.99 87.0802 1382.8 86.7139 1382.72 86.3151C1382.64 85.9163 1382.68 85.503 1382.83 85.1273C1382.98 84.7517 1383.24 84.4307 1383.57 84.2048C1383.9 83.9789 1384.28 83.8583 1384.68 83.8583C1385.21 83.8583 1385.72 84.0749 1386.09 84.4604C1386.47 84.8459 1386.68 85.3689 1386.68 85.9141Z" fill="#100C14" fill-opacity="0.18"/>
<path d="M1397.49 85.9031C1397.49 86.3101 1397.38 86.7086 1397.16 87.0482C1396.94 87.3877 1396.63 87.6529 1396.26 87.8102C1395.9 87.9675 1395.5 88.0097 1395.11 87.9317C1394.72 87.8536 1394.36 87.6587 1394.08 87.3716C1393.8 87.0846 1393.61 86.7183 1393.53 86.3192C1393.45 85.9201 1393.49 85.5063 1393.64 85.13C1393.79 84.7537 1394.05 84.432 1394.38 84.2056C1394.71 83.9792 1395.09 83.8583 1395.49 83.8583C1395.75 83.8568 1396.01 83.9087 1396.25 84.0108C1396.5 84.1129 1396.72 84.2633 1396.9 84.4533C1397.09 84.6433 1397.24 84.8692 1397.34 85.118C1397.44 85.3668 1397.49 85.6336 1397.49 85.9031Z" fill="#100C14" fill-opacity="0.18"/>
<path d="M1408.31 85.9031C1408.31 86.3101 1408.2 86.7086 1407.98 87.0482C1407.76 87.3877 1407.45 87.6529 1407.08 87.8102C1406.72 87.9675 1406.32 88.0097 1405.93 87.9317C1405.54 87.8536 1405.18 87.6587 1404.9 87.3716C1404.62 87.0846 1404.43 86.7183 1404.35 86.3192C1404.27 85.9201 1404.31 85.5063 1404.46 85.13C1404.61 84.7537 1404.87 84.432 1405.2 84.2056C1405.53 83.9792 1405.91 83.8583 1406.31 83.8583C1406.57 83.8568 1406.83 83.9087 1407.07 84.0108C1407.32 84.1129 1407.54 84.2633 1407.72 84.4533C1407.91 84.6433 1408.06 84.8692 1408.16 85.118C1408.26 85.3668 1408.31 85.6336 1408.31 85.9031Z" fill="#100C14" fill-opacity="0.18"/>
<path d="M1419.13 85.9031C1419.13 86.3106 1419.02 86.7096 1418.8 87.0493C1418.58 87.3891 1418.27 87.6543 1417.9 87.8112C1417.53 87.9682 1417.13 88.0099 1416.74 87.9309C1416.35 87.8519 1416 87.6559 1415.72 87.3677C1415.44 87.0796 1415.24 86.7122 1415.17 86.3124C1415.09 85.9126 1415.13 85.4984 1415.28 85.1223C1415.44 84.7462 1415.69 84.4252 1416.03 84.2002C1416.36 83.9751 1416.74 83.8561 1417.14 83.8583C1417.67 83.8583 1418.17 84.0738 1418.55 84.4572C1418.92 84.8407 1419.13 85.3608 1419.13 85.9031Z" fill="#100C14" fill-opacity="0.18"/>
<path d="M1430 85.9031C1430 86.3106 1429.89 86.7096 1429.67 87.0493C1429.45 87.3891 1429.14 87.6543 1428.77 87.8112C1428.4 87.9682 1428 88.0099 1427.61 87.9309C1427.22 87.8519 1426.87 87.6559 1426.59 87.3677C1426.31 87.0796 1426.11 86.7122 1426.04 86.3124C1425.96 85.9126 1426 85.4984 1426.15 85.1223C1426.31 84.7462 1426.57 84.4252 1426.9 84.2002C1427.23 83.9751 1427.61 83.8561 1428.01 83.8583C1428.54 83.8583 1429.04 84.0738 1429.42 84.4572C1429.79 84.8407 1430 85.3608 1430 85.9031Z" fill="#100C14" fill-opacity="0.18"/>
<path d="M1440.79 85.9141C1440.79 86.3207 1440.67 86.7181 1440.45 87.0562C1440.23 87.3942 1439.92 87.6578 1439.56 87.8134C1439.19 87.9689 1438.79 88.0097 1438.4 87.9303C1438.01 87.851 1437.66 87.6552 1437.38 87.3677C1437.1 87.0802 1436.91 86.7139 1436.83 86.3151C1436.75 85.9163 1436.79 85.503 1436.94 85.1273C1437.09 84.7517 1437.35 84.4307 1437.68 84.2048C1438.01 83.9789 1438.39 83.8583 1438.79 83.8583C1439.32 83.8583 1439.83 84.0749 1440.2 84.4604C1440.58 84.8459 1440.79 85.3689 1440.79 85.9141Z" fill="#100C14" fill-opacity="0.18"/>
<path d="M1365 100.814C1365 101.222 1364.89 101.621 1364.67 101.961C1364.45 102.3 1364.14 102.566 1363.77 102.722C1363.4 102.879 1363 102.921 1362.61 102.842C1362.22 102.763 1361.87 102.567 1361.59 102.279C1361.31 101.991 1361.11 101.623 1361.04 101.224C1360.96 100.824 1361 100.41 1361.15 100.034C1361.31 99.6575 1361.57 99.3365 1361.9 99.1114C1362.23 98.8864 1362.61 98.7674 1363.01 98.7696C1363.27 98.7696 1363.53 98.8224 1363.77 98.9252C1364.01 99.0279 1364.23 99.1786 1364.42 99.3685C1364.6 99.5583 1364.75 99.7837 1364.85 100.032C1364.95 100.28 1365 100.546 1365 100.814Z" fill="#100C14" fill-opacity="0.18"/>
<path d="M1375.86 100.825C1375.86 101.232 1375.74 101.629 1375.52 101.967C1375.3 102.305 1374.99 102.569 1374.63 102.725C1374.26 102.88 1373.86 102.921 1373.47 102.842C1373.08 102.762 1372.73 102.566 1372.45 102.279C1372.17 101.991 1371.98 101.625 1371.9 101.226C1371.82 100.828 1371.86 100.414 1372.01 100.039C1372.16 99.6629 1372.42 99.3419 1372.75 99.116C1373.08 98.8901 1373.46 98.7695 1373.86 98.7695C1374.12 98.7695 1374.38 98.8227 1374.63 98.926C1374.87 99.0293 1375.09 99.1808 1375.27 99.3717C1375.46 99.5626 1375.61 99.7892 1375.71 100.039C1375.81 100.288 1375.86 100.555 1375.86 100.825Z" fill="#100C14" fill-opacity="0.18"/>
<path d="M1386.68 100.825C1386.68 101.232 1386.56 101.629 1386.34 101.967C1386.12 102.305 1385.81 102.569 1385.45 102.725C1385.08 102.88 1384.68 102.921 1384.29 102.842C1383.9 102.762 1383.55 102.566 1383.27 102.279C1382.99 101.991 1382.8 101.625 1382.72 101.226C1382.64 100.828 1382.68 100.414 1382.83 100.039C1382.98 99.6629 1383.24 99.3419 1383.57 99.116C1383.9 98.8901 1384.28 98.7695 1384.68 98.7695C1384.94 98.7695 1385.2 98.8227 1385.45 98.926C1385.69 99.0293 1385.91 99.1808 1386.09 99.3717C1386.28 99.5626 1386.43 99.7892 1386.53 100.039C1386.63 100.288 1386.68 100.555 1386.68 100.825Z" fill="#100C14" fill-opacity="0.18"/>
<path d="M1397.49 100.814C1397.49 101.221 1397.38 101.62 1397.16 101.959C1396.94 102.299 1396.63 102.564 1396.26 102.721C1395.9 102.879 1395.5 102.921 1395.11 102.843C1394.72 102.765 1394.36 102.57 1394.08 102.283C1393.8 101.996 1393.61 101.63 1393.53 101.23C1393.45 100.831 1393.49 100.418 1393.64 100.041C1393.79 99.6649 1394.05 99.3432 1394.38 99.1168C1394.71 98.8905 1395.09 98.7696 1395.49 98.7696C1395.75 98.7681 1396.01 98.8199 1396.25 98.922C1396.5 99.0241 1396.72 99.1745 1396.9 99.3645C1397.09 99.5546 1397.24 99.7804 1397.34 100.029C1397.44 100.278 1397.49 100.545 1397.49 100.814Z" fill="#100C14" fill-opacity="0.18"/>
<path d="M1408.31 100.814C1408.31 101.221 1408.2 101.62 1407.98 101.959C1407.76 102.299 1407.45 102.564 1407.08 102.721C1406.72 102.879 1406.32 102.921 1405.93 102.843C1405.54 102.765 1405.18 102.57 1404.9 102.283C1404.62 101.996 1404.43 101.63 1404.35 101.23C1404.27 100.831 1404.31 100.418 1404.46 100.041C1404.61 99.6649 1404.87 99.3432 1405.2 99.1168C1405.53 98.8905 1405.91 98.7696 1406.31 98.7696C1406.57 98.7681 1406.83 98.8199 1407.07 98.922C1407.32 99.0241 1407.54 99.1745 1407.72 99.3645C1407.91 99.5546 1408.06 99.7804 1408.16 100.029C1408.26 100.278 1408.31 100.545 1408.31 100.814Z" fill="#100C14" fill-opacity="0.18"/>
<path d="M1419.13 100.814C1419.13 101.222 1419.02 101.621 1418.8 101.961C1418.58 102.3 1418.27 102.566 1417.9 102.722C1417.53 102.879 1417.13 102.921 1416.74 102.842C1416.35 102.763 1416 102.567 1415.72 102.279C1415.44 101.991 1415.24 101.623 1415.17 101.224C1415.09 100.824 1415.13 100.41 1415.28 100.034C1415.44 99.6575 1415.69 99.3365 1416.03 99.1114C1416.36 98.8864 1416.74 98.7674 1417.14 98.7696C1417.4 98.7696 1417.66 98.8224 1417.9 98.9252C1418.14 99.0279 1418.36 99.1786 1418.55 99.3685C1418.73 99.5583 1418.88 99.7837 1418.98 100.032C1419.08 100.28 1419.13 100.546 1419.13 100.814Z" fill="#100C14" fill-opacity="0.18"/>
<path d="M1430 100.814C1430 101.222 1429.89 101.621 1429.67 101.961C1429.45 102.3 1429.14 102.566 1428.77 102.722C1428.4 102.879 1428 102.921 1427.61 102.842C1427.22 102.763 1426.87 102.567 1426.59 102.279C1426.31 101.991 1426.11 101.623 1426.04 101.224C1425.96 100.824 1426 100.41 1426.15 100.034C1426.31 99.6575 1426.57 99.3365 1426.9 99.1114C1427.23 98.8864 1427.61 98.7674 1428.01 98.7696C1428.27 98.7696 1428.53 98.8224 1428.77 98.9252C1429.01 99.0279 1429.23 99.1786 1429.42 99.3685C1429.6 99.5583 1429.75 99.7837 1429.85 100.032C1429.95 100.28 1430 100.546 1430 100.814Z" fill="#100C14" fill-opacity="0.18"/>
<path d="M1440.79 100.825C1440.79 101.232 1440.67 101.629 1440.45 101.967C1440.23 102.305 1439.92 102.569 1439.56 102.725C1439.19 102.88 1438.79 102.921 1438.4 102.842C1438.01 102.762 1437.66 102.566 1437.38 102.279C1437.1 101.991 1436.91 101.625 1436.83 101.226C1436.75 100.828 1436.79 100.414 1436.94 100.039C1437.09 99.6629 1437.35 99.3419 1437.68 99.116C1438.01 98.8901 1438.39 98.7695 1438.79 98.7695C1439.05 98.7695 1439.31 98.8227 1439.56 98.926C1439.8 99.0293 1440.02 99.1808 1440.2 99.3717C1440.39 99.5626 1440.54 99.7892 1440.64 100.039C1440.74 100.288 1440.79 100.555 1440.79 100.825Z" fill="#100C14" fill-opacity="0.18"/>
<path d="M3.99997 2.5683C4.0021 2.97584 3.8863 3.37482 3.66736 3.71459C3.44842 4.05435 3.13623 4.31958 2.77034 4.47655C2.40445 4.63351 2.0014 4.67513 1.61243 4.59616C1.22347 4.51718 0.866145 4.32117 0.585792 4.033C0.30544 3.74483 0.114745 3.37753 0.0379171 2.97772C-0.0389105 2.57791 0.00157121 2.16362 0.154278 1.78752C0.306985 1.41143 0.565021 1.09046 0.895564 0.865409C1.22611 0.640359 1.61427 0.521404 2.01074 0.523589C2.27197 0.523589 2.53063 0.576462 2.77198 0.67922C3.01332 0.781978 3.23259 0.932628 3.41731 1.1225C3.60203 1.31237 3.74859 1.53776 3.84856 1.78583C3.94853 2.03391 3.99997 2.29979 3.99997 2.5683Z" fill="#100C14" fill-opacity="0.18"/>
<path d="M14.8599 2.57933C14.8599 2.98593 14.7425 3.38343 14.5228 3.7215C14.303 4.05958 13.9906 4.32303 13.6252 4.47863C13.2597 4.63423 12.8576 4.67495 12.4697 4.59563C12.0817 4.51631 11.7253 4.32053 11.4456 4.03302C11.1659 3.74551 10.9755 3.37923 10.8983 2.98045C10.8211 2.58166 10.8607 2.16828 11.0121 1.79263C11.1635 1.41698 11.4199 1.0959 11.7487 0.870009C12.0776 0.644115 12.4643 0.52356 12.8598 0.52356C13.1225 0.52356 13.3825 0.576718 13.6252 0.680032C13.8678 0.783345 14.0883 0.93481 14.2741 1.12571C14.4598 1.31661 14.6071 1.54321 14.7076 1.79263C14.8081 2.04205 14.8599 2.30936 14.8599 2.57933Z" fill="#100C14" fill-opacity="0.18"/>
<path d="M25.6799 2.57933C25.6799 2.98593 25.5626 3.38343 25.3429 3.7215C25.1231 4.05958 24.8108 4.32303 24.4453 4.47863C24.0798 4.63423 23.6777 4.67495 23.2898 4.59563C22.9018 4.51631 22.5454 4.32053 22.2657 4.03302C21.986 3.74551 21.7955 3.37923 21.7184 2.98045C21.6412 2.58166 21.6808 2.16828 21.8322 1.79263C21.9836 1.41698 22.2399 1.0959 22.5688 0.870009C22.8977 0.644115 23.2844 0.52356 23.6799 0.52356C23.9426 0.52356 24.2026 0.576718 24.4453 0.680032C24.688 0.783345 24.9085 0.93481 25.0942 1.12571C25.2799 1.31661 25.4272 1.54321 25.5277 1.79263C25.6282 2.04205 25.6799 2.30936 25.6799 2.57933Z" fill="#100C14" fill-opacity="0.18"/>
<path d="M36.49 2.56826C36.4921 2.97532 36.3766 3.37387 36.1581 3.71339C35.9397 4.05291 35.6281 4.31812 35.2628 4.47542C34.8976 4.63271 34.4951 4.67505 34.1064 4.59698C33.7178 4.51891 33.3604 4.32399 33.0796 4.03693C32.7988 3.74987 32.6073 3.38357 32.5292 2.98449C32.4512 2.58541 32.4901 2.17146 32.6412 1.79517C32.7922 1.41889 33.0485 1.09716 33.3777 0.870775C33.7068 0.64439 34.0939 0.523565 34.49 0.52356C35.0185 0.523552 35.5256 0.738645 35.9004 1.12179C36.2752 1.50494 36.4871 2.02495 36.49 2.56826Z" fill="#100C14" fill-opacity="0.18"/>
<path d="M47.31 2.56826C47.3122 2.97532 47.1967 3.37387 46.9782 3.71339C46.7597 4.05291 46.4481 4.31812 46.0829 4.47542C45.7176 4.63271 45.3152 4.67505 44.9265 4.59698C44.5378 4.51891 44.1804 4.32399 43.8997 4.03693C43.6189 3.74987 43.4273 3.38357 43.3493 2.98449C43.2712 2.58541 43.3102 2.17146 43.4613 1.79517C43.6123 1.41889 43.8686 1.09716 44.1977 0.870775C44.5269 0.64439 44.914 0.523565 45.31 0.52356C45.8386 0.523552 46.3457 0.738645 46.7205 1.12179C47.0952 1.50494 47.3072 2.02495 47.31 2.56826Z" fill="#100C14" fill-opacity="0.18"/>
<path d="M58.1299 2.5683C58.132 2.97584 58.0162 3.37482 57.7972 3.71459C57.5783 4.05435 57.2661 4.31958 56.9002 4.47655C56.5343 4.63351 56.1313 4.67513 55.7423 4.59616C55.3534 4.51718 54.9961 4.32117 54.7157 4.033C54.4354 3.74483 54.2446 3.37753 54.1678 2.97772C54.091 2.57791 54.1315 2.16362 54.2842 1.78752C54.4369 1.41143 54.6949 1.09046 55.0255 0.865409C55.356 0.640359 55.7442 0.521404 56.1406 0.523589C56.4019 0.523589 56.6605 0.576462 56.9019 0.67922C57.1432 0.781978 57.3625 0.932628 57.5472 1.1225C57.7319 1.31237 57.8785 1.53776 57.9784 1.78583C58.0784 2.03391 58.1299 2.29979 58.1299 2.5683Z" fill="#100C14" fill-opacity="0.18"/>
<path d="M69 2.5683C69.0021 2.97584 68.8863 3.37482 68.6674 3.71459C68.4484 4.05435 68.1362 4.31958 67.7703 4.47655C67.4044 4.63351 67.0014 4.67513 66.6124 4.59616C66.2235 4.51718 65.8661 4.32117 65.5858 4.033C65.3054 3.74483 65.1147 3.37753 65.0379 2.97772C64.9611 2.57791 65.0016 2.16362 65.1543 1.78752C65.307 1.41143 65.565 1.09046 65.8956 0.865409C66.2261 0.640359 66.6143 0.521404 67.0107 0.523589C67.272 0.523589 67.5306 0.576462 67.772 0.67922C68.0133 0.781978 68.2326 0.932628 68.4173 1.1225C68.602 1.31237 68.7486 1.53776 68.8486 1.78583C68.9485 2.03391 69 2.29979 69 2.5683Z" fill="#100C14" fill-opacity="0.18"/>
<path d="M79.79 2.57933C79.79 2.98593 79.6727 3.38343 79.4529 3.7215C79.2332 4.05958 78.9209 4.32303 78.5554 4.47863C78.19 4.63423 77.7878 4.67495 77.3999 4.59563C77.0119 4.51631 76.6556 4.32053 76.3759 4.03302C76.0962 3.74551 75.9056 3.37923 75.8285 2.98045C75.7513 2.58166 75.7909 2.16828 75.9423 1.79263C76.0937 1.41698 76.35 1.0959 76.6789 0.870009C77.0078 0.644115 77.3945 0.52356 77.79 0.52356C78.0527 0.52356 78.3128 0.576718 78.5554 0.680032C78.7981 0.783345 79.0185 0.93481 79.2042 1.12571C79.39 1.31661 79.5372 1.54321 79.6377 1.79263C79.7383 2.04205 79.79 2.30936 79.79 2.57933Z" fill="#100C14" fill-opacity="0.18"/>
<path d="M3.99997 17.4906C3.99996 17.8977 3.88242 18.2956 3.66218 18.6339C3.44194 18.9722 3.12895 19.2357 2.76287 19.391C2.39679 19.5462 1.99409 19.5863 1.60584 19.5061C1.21759 19.4258 0.861235 19.229 0.581965 18.9403C0.302696 18.6517 0.113068 18.2844 0.0371164 17.8849C-0.0388348 17.4853 0.0023551 17.0717 0.155379 16.6962C0.308403 16.3208 0.566413 16.0005 0.89672 15.7759C1.22703 15.5514 1.61476 15.4327 2.01077 15.4348C2.2729 15.4348 2.53244 15.4881 2.77449 15.5916C3.01654 15.695 3.23627 15.8466 3.42113 16.0376C3.60598 16.2286 3.75232 16.4554 3.85165 16.7047C3.95098 16.9541 4.00139 17.2212 3.99997 17.4906Z" fill="#100C14" fill-opacity="0.18"/>
<path d="M14.8598 17.5017C14.8577 17.9078 14.7386 18.3042 14.5175 18.6408C14.2965 18.9774 13.9833 19.2392 13.6177 19.3931C13.2521 19.547 12.8503 19.5861 12.463 19.5055C12.0758 19.4249 11.7204 19.2283 11.4418 18.9403C11.1632 18.6524 10.9738 18.286 10.8975 17.8876C10.8212 17.4891 10.8614 17.0763 11.0131 16.7013C11.1648 16.3263 11.4212 16.0059 11.7498 15.7805C12.0785 15.5551 12.4647 15.4348 12.8598 15.4348C13.1234 15.4348 13.3843 15.4884 13.6277 15.5924C13.871 15.6964 14.092 15.8488 14.2779 16.0408C14.4637 16.2329 14.6108 16.4608 14.7107 16.7115C14.8106 16.9623 14.8613 17.2308 14.8598 17.5017Z" fill="#100C14" fill-opacity="0.18"/>
<path d="M25.6799 17.5017C25.6778 17.9078 25.5587 18.3042 25.3376 18.6408C25.1166 18.9774 24.8034 19.2392 24.4378 19.3931C24.0722 19.547 23.6704 19.5861 23.2831 19.5055C22.8959 19.4249 22.5405 19.2283 22.2619 18.9403C21.9833 18.6524 21.7939 18.286 21.7176 17.8876C21.6413 17.4891 21.6815 17.0763 21.8332 16.7013C21.9849 16.3263 22.2412 16.0059 22.5699 15.7805C22.8986 15.5551 23.2848 15.4348 23.6799 15.4348C23.9435 15.4348 24.2044 15.4884 24.4478 15.5924C24.6911 15.6964 24.9121 15.8488 25.098 16.0408C25.2838 16.2329 25.4309 16.4608 25.5308 16.7115C25.6306 16.9623 25.6813 17.2308 25.6799 17.5017Z" fill="#100C14" fill-opacity="0.18"/>
<path d="M36.49 17.4906C36.49 17.8972 36.3727 18.2947 36.1529 18.6328C35.9331 18.9708 35.6208 19.2343 35.2554 19.3899C34.8899 19.5455 34.4878 19.5862 34.0998 19.5069C33.7119 19.4276 33.3555 19.2318 33.0758 18.9443C32.7961 18.6568 32.6056 18.2904 32.5284 17.8916C32.4513 17.4929 32.4908 17.0795 32.6422 16.7039C32.7936 16.3282 33.0499 16.0072 33.3788 15.7813C33.7077 15.5554 34.0944 15.4348 34.49 15.4348C34.753 15.4334 35.0138 15.4855 35.2571 15.5883C35.5004 15.6911 35.7214 15.8425 35.9074 16.0337C36.0934 16.2249 36.2407 16.4521 36.3407 16.7021C36.4407 16.9522 36.4914 17.2202 36.49 17.4906Z" fill="#100C14" fill-opacity="0.18"/>
<path d="M47.31 17.4906C47.31 17.8972 47.1927 18.2947 46.973 18.6328C46.7532 18.9708 46.4409 19.2343 46.0754 19.3899C45.71 19.5455 45.3079 19.5862 44.9199 19.5069C44.5319 19.4276 44.1755 19.2318 43.8958 18.9443C43.6161 18.6568 43.4257 18.2904 43.3485 17.8916C43.2713 17.4929 43.3109 17.0795 43.4623 16.7039C43.6137 16.3282 43.87 16.0072 44.1989 15.7813C44.5278 15.5554 44.9145 15.4348 45.3101 15.4348C45.5731 15.4334 45.8338 15.4855 46.0771 15.5883C46.3204 15.6911 46.5414 15.8425 46.7274 16.0337C46.9134 16.2249 47.0607 16.4521 47.1607 16.7021C47.2607 16.9522 47.3115 17.2202 47.31 17.4906Z" fill="#100C14" fill-opacity="0.18"/>
<path d="M58.1299 17.4906C58.1298 17.8977 58.0122 18.2956 57.792 18.6339C57.5718 18.9722 57.2588 19.2357 56.8928 19.391C56.5267 19.5462 56.124 19.5863 55.7357 19.5061C55.3475 19.4258 54.9911 19.229 54.7119 18.9403C54.4326 18.6517 54.243 18.2844 54.167 17.8849C54.0911 17.4853 54.1322 17.0717 54.2852 16.6962C54.4382 16.3208 54.6963 16.0005 55.0266 15.7759C55.3569 15.5514 55.7446 15.4327 56.1407 15.4348C56.4028 15.4348 56.6623 15.4881 56.9044 15.5916C57.1464 15.695 57.3662 15.8466 57.551 16.0376C57.7359 16.2286 57.8822 16.4554 57.9815 16.7047C58.0809 16.9541 58.1313 17.2212 58.1299 17.4906Z" fill="#100C14" fill-opacity="0.18"/>
<path d="M69 17.4906C69 17.8977 68.8824 18.2956 68.6622 18.6339C68.4419 18.9722 68.1289 19.2357 67.7629 19.391C67.3968 19.5462 66.9941 19.5863 66.6058 19.5061C66.2176 19.4258 65.8612 19.229 65.582 18.9403C65.3027 18.6517 65.1131 18.2844 65.0371 17.8849C64.9612 17.4853 65.0024 17.0717 65.1554 16.6962C65.3084 16.3208 65.5664 16.0005 65.8967 15.7759C66.227 15.5514 66.6148 15.4327 67.0108 15.4348C67.2729 15.4348 67.5324 15.4881 67.7745 15.5916C68.0165 15.695 68.2363 15.8466 68.4211 16.0376C68.606 16.2286 68.7523 16.4554 68.8516 16.7047C68.951 16.9541 69.0014 17.2212 69 17.4906Z" fill="#100C14" fill-opacity="0.18"/>
<path d="M79.79 17.5017C79.7879 17.9078 79.6687 18.3042 79.4477 18.6408C79.2266 18.9774 78.9135 19.2392 78.5479 19.3931C78.1822 19.547 77.7805 19.5861 77.3932 19.5055C77.006 19.4249 76.6506 19.2283 76.372 18.9403C76.0934 18.6524 75.904 18.286 75.8277 17.8876C75.7514 17.4891 75.7916 17.0763 75.9433 16.7013C76.095 16.3263 76.3513 16.0059 76.68 15.7805C77.0087 15.5551 77.3949 15.4348 77.79 15.4348C78.0535 15.4348 78.3145 15.4884 78.5579 15.5924C78.8013 15.6964 79.0222 15.8488 79.208 16.0408C79.3939 16.2329 79.541 16.4608 79.6409 16.7115C79.7408 16.9623 79.7914 17.2308 79.79 17.5017Z" fill="#100C14" fill-opacity="0.18"/>
<path d="M3.99997 32.402C3.99996 32.8091 3.88242 33.2069 3.66218 33.5452C3.44194 33.8836 3.12895 34.1471 2.76287 34.3024C2.39679 34.4576 1.99409 34.4977 1.60584 34.4174C1.21759 34.3372 0.861235 34.1403 0.581965 33.8517C0.302696 33.5631 0.113068 33.1957 0.0371164 32.7962C-0.0388348 32.3967 0.0023551 31.983 0.155379 31.6076C0.308403 31.2321 0.566413 30.9119 0.89672 30.6873C1.22703 30.4627 1.61476 30.344 2.01077 30.3462C2.2729 30.3462 2.53244 30.3994 2.77449 30.5029C3.01654 30.6063 3.23627 30.7579 3.42113 30.949C3.60598 31.14 3.75232 31.3667 3.85165 31.6161C3.95098 31.8654 4.00139 32.1326 3.99997 32.402Z" fill="#100C14" fill-opacity="0.18"/>
<path d="M14.8598 32.4131C14.8577 32.8197 14.7383 33.2165 14.5167 33.5533C14.2952 33.8902 13.9815 34.1519 13.6152 34.3055C13.2489 34.4591 12.8466 34.4975 12.4591 34.4161C12.0716 34.3346 11.7162 34.1368 11.438 33.8478C11.1598 33.5587 10.9713 33.1913 10.8962 32.7921C10.8211 32.3929 10.8629 31.9798 11.0162 31.605C11.1696 31.2302 11.4276 30.9106 11.7577 30.6865C12.0878 30.4624 12.4751 30.344 12.8706 30.3462C13.1333 30.3477 13.3931 30.4022 13.6352 30.5069C13.8773 30.6116 14.097 30.7642 14.2817 30.9562C14.4664 31.1481 14.6125 31.3756 14.7117 31.6255C14.8109 31.8755 14.8613 32.1431 14.8598 32.4131Z" fill="#100C14" fill-opacity="0.18"/>
<path d="M25.6799 32.4131C25.6778 32.8192 25.5587 33.2156 25.3376 33.5522C25.1166 33.8888 24.8034 34.1505 24.4378 34.3044C24.0722 34.4583 23.6704 34.4975 23.2831 34.4169C22.8959 34.3363 22.5405 34.1397 22.2619 33.8517C21.9833 33.5638 21.7939 33.1974 21.7176 32.7989C21.6413 32.4005 21.6815 31.9877 21.8332 31.6127C21.9849 31.2377 22.2412 30.9173 22.5699 30.6919C22.8986 30.4665 23.2848 30.3462 23.6799 30.3462C23.9435 30.3462 24.2044 30.3997 24.4478 30.5037C24.6911 30.6077 24.9121 30.7601 25.098 30.9522C25.2838 31.1443 25.4309 31.3722 25.5308 31.6229C25.6306 31.8736 25.6813 32.1422 25.6799 32.4131Z" fill="#100C14" fill-opacity="0.18"/>
<path d="M36.49 32.402C36.49 32.8086 36.3727 33.206 36.1529 33.5441C35.9331 33.8821 35.6208 34.1456 35.2554 34.3012C34.8899 34.4568 34.4878 34.4976 34.0998 34.4183C33.7119 34.339 33.3555 34.1431 33.0758 33.8556C32.7961 33.5681 32.6056 33.2018 32.5284 32.803C32.4513 32.4042 32.4908 31.9909 32.6422 31.6153C32.7936 31.2396 33.0499 30.9185 33.3788 30.6926C33.7077 30.4667 34.0944 30.3462 34.49 30.3462C34.753 30.3448 35.0138 30.3969 35.2571 30.4997C35.5004 30.6025 35.7214 30.7539 35.9074 30.9451C36.0934 31.1362 36.2407 31.3634 36.3407 31.6135C36.4407 31.8636 36.4914 32.1316 36.49 32.402Z" fill="#100C14" fill-opacity="0.18"/>
<path d="M47.31 32.402C47.31 32.8086 47.1927 33.206 46.973 33.5441C46.7532 33.8821 46.4409 34.1456 46.0754 34.3012C45.71 34.4568 45.3079 34.4976 44.9199 34.4183C44.5319 34.339 44.1755 34.1431 43.8958 33.8556C43.6161 33.5681 43.4257 33.2018 43.3485 32.803C43.2713 32.4042 43.3109 31.9909 43.4623 31.6153C43.6137 31.2396 43.87 30.9185 44.1989 30.6926C44.5278 30.4667 44.9145 30.3462 45.3101 30.3462C45.5731 30.3448 45.8338 30.3969 46.0771 30.4997C46.3204 30.6025 46.5414 30.7539 46.7274 30.9451C46.9134 31.1362 47.0607 31.3634 47.1607 31.6135C47.2607 31.8636 47.3115 32.1316 47.31 32.402Z" fill="#100C14" fill-opacity="0.18"/>
<path d="M58.1299 32.402C58.1298 32.8091 58.0122 33.2069 57.792 33.5452C57.5718 33.8836 57.2588 34.1471 56.8928 34.3024C56.5267 34.4576 56.124 34.4977 55.7357 34.4174C55.3475 34.3372 54.9911 34.1403 54.7119 33.8517C54.4326 33.5631 54.243 33.1957 54.167 32.7962C54.0911 32.3967 54.1322 31.983 54.2852 31.6076C54.4382 31.2321 54.6963 30.9119 55.0266 30.6873C55.3569 30.4627 55.7446 30.344 56.1407 30.3462C56.4028 30.3462 56.6623 30.3994 56.9044 30.5029C57.1464 30.6063 57.3662 30.7579 57.551 30.949C57.7359 31.14 57.8822 31.3667 57.9815 31.6161C58.0809 31.8654 58.1313 32.1326 58.1299 32.402Z" fill="#100C14" fill-opacity="0.18"/>
<path d="M69 32.402C69 32.8091 68.8824 33.2069 68.6622 33.5452C68.4419 33.8836 68.1289 34.1471 67.7629 34.3024C67.3968 34.4576 66.9941 34.4977 66.6058 34.4174C66.2176 34.3372 65.8612 34.1403 65.582 33.8517C65.3027 33.5631 65.1131 33.1957 65.0371 32.7962C64.9612 32.3967 65.0024 31.983 65.1554 31.6076C65.3084 31.2321 65.5664 30.9119 65.8967 30.6873C66.227 30.4627 66.6148 30.344 67.0108 30.3462C67.2729 30.3462 67.5324 30.3994 67.7745 30.5029C68.0165 30.6063 68.2363 30.7579 68.4211 30.949C68.606 31.14 68.7523 31.3667 68.8516 31.6161C68.951 31.8654 69.0014 32.1326 69 32.402Z" fill="#100C14" fill-opacity="0.18"/>
<path d="M79.79 32.4131C79.7879 32.8192 79.6687 33.2156 79.4477 33.5522C79.2266 33.8888 78.9135 34.1505 78.5479 34.3044C78.1822 34.4583 77.7805 34.4975 77.3932 34.4169C77.006 34.3363 76.6506 34.1397 76.372 33.8517C76.0934 33.5638 75.904 33.1974 75.8277 32.7989C75.7514 32.4005 75.7916 31.9877 75.9433 31.6127C76.095 31.2377 76.3513 30.9173 76.68 30.6919C77.0087 30.4665 77.3949 30.3462 77.79 30.3462C78.0535 30.3462 78.3145 30.3997 78.5579 30.5037C78.8013 30.6077 79.0222 30.7601 79.208 30.9522C79.3939 31.1443 79.541 31.3722 79.6409 31.6229C79.7408 31.8736 79.7914 32.1422 79.79 32.4131Z" fill="#100C14" fill-opacity="0.18"/>
<path d="M3.99997 47.3158C4.0021 47.7233 3.8863 48.1223 3.66736 48.4621C3.44842 48.8018 3.13623 49.067 2.77034 49.2239C2.40445 49.3809 2.0014 49.4226 1.61243 49.3436C1.22347 49.2646 0.866145 49.0686 0.585792 48.7805C0.30544 48.4923 0.114745 48.1249 0.0379171 47.7251C-0.0389105 47.3253 0.00157121 46.9111 0.154278 46.535C0.306985 46.1589 0.565021 45.838 0.895564 45.6129C1.22611 45.3879 1.61427 45.2688 2.01074 45.271C2.53832 45.271 3.04425 45.4865 3.41731 45.8699C3.79037 46.2534 3.99997 46.7735 3.99997 47.3158Z" fill="#100C14" fill-opacity="0.18"/>
<path d="M14.8599 47.3268C14.8599 47.7334 14.7425 48.1308 14.5228 48.4689C14.303 48.807 13.9906 49.0705 13.6252 49.2261C13.2597 49.3817 12.8576 49.4224 12.4697 49.3431C12.0817 49.2637 11.7253 49.0679 11.4456 48.7804C11.1659 48.4929 10.9755 48.1266 10.8983 47.7278C10.8211 47.3291 10.8607 46.9157 11.0121 46.54C11.1635 46.1644 11.4199 45.8434 11.7487 45.6175C12.0776 45.3916 12.4643 45.271 12.8598 45.271C13.3903 45.271 13.899 45.4876 14.2741 45.8731C14.6491 46.2587 14.8599 46.7816 14.8599 47.3268Z" fill="#100C14" fill-opacity="0.18"/>
<path d="M25.6799 47.3268C25.6799 47.7334 25.5626 48.1308 25.3429 48.4689C25.1231 48.807 24.8108 49.0705 24.4453 49.2261C24.0798 49.3817 23.6777 49.4224 23.2898 49.3431C22.9018 49.2637 22.5454 49.0679 22.2657 48.7804C21.986 48.4929 21.7955 48.1266 21.7184 47.7278C21.6412 47.3291 21.6808 46.9157 21.8322 46.54C21.9836 46.1644 22.2399 45.8434 22.5688 45.6175C22.8977 45.3916 23.2844 45.271 23.6799 45.271C24.2104 45.271 24.7191 45.4876 25.0942 45.8731C25.4693 46.2587 25.6799 46.7816 25.6799 47.3268Z" fill="#100C14" fill-opacity="0.18"/>
<path d="M36.49 47.3158C36.4921 47.7228 36.3766 48.1214 36.1581 48.4609C35.9397 48.8004 35.6281 49.0656 35.2628 49.2229C34.8976 49.3802 34.4951 49.4225 34.1064 49.3444C33.7178 49.2663 33.3604 49.0714 33.0796 48.7844C32.7988 48.4973 32.6073 48.131 32.5292 47.7319C32.4512 47.3329 32.4901 46.919 32.6412 46.5427C32.7922 46.1664 33.0485 45.8447 33.3777 45.6183C33.7068 45.3919 34.0939 45.271 34.49 45.271C34.7521 45.2696 35.012 45.3214 35.2546 45.4235C35.4971 45.5256 35.7177 45.676 35.9036 45.866C36.0894 46.056 36.2369 46.2819 36.3375 46.5307C36.4381 46.7795 36.49 47.0463 36.49 47.3158Z" fill="#100C14" fill-opacity="0.18"/>
<path d="M47.31 47.3158C47.3122 47.7228 47.1967 48.1214 46.9782 48.4609C46.7597 48.8004 46.4481 49.0656 46.0829 49.2229C45.7176 49.3802 45.3152 49.4225 44.9265 49.3444C44.5378 49.2663 44.1804 49.0714 43.8997 48.7844C43.6189 48.4973 43.4273 48.131 43.3493 47.7319C43.2712 47.3329 43.3102 46.919 43.4613 46.5427C43.6123 46.1664 43.8686 45.8447 44.1977 45.6183C44.5269 45.3919 44.914 45.271 45.31 45.271C45.5722 45.2696 45.832 45.3214 46.0746 45.4235C46.3171 45.5256 46.5377 45.676 46.7236 45.866C46.9094 46.056 47.0569 46.2819 47.1576 46.5307C47.2582 46.7795 47.31 47.0463 47.31 47.3158Z" fill="#100C14" fill-opacity="0.18"/>
<path d="M58.1299 47.3158C58.132 47.7233 58.0162 48.1223 57.7972 48.4621C57.5783 48.8018 57.2661 49.067 56.9002 49.2239C56.5343 49.3809 56.1313 49.4226 55.7423 49.3436C55.3534 49.2646 54.9961 49.0686 54.7157 48.7805C54.4354 48.4923 54.2446 48.1249 54.1678 47.7251C54.091 47.3253 54.1315 46.9111 54.2842 46.535C54.4369 46.1589 54.6949 45.838 55.0255 45.6129C55.356 45.3879 55.7442 45.2688 56.1406 45.271C56.6682 45.271 57.1741 45.4865 57.5472 45.8699C57.9203 46.2534 58.1299 46.7735 58.1299 47.3158Z" fill="#100C14" fill-opacity="0.18"/>
<path d="M69 47.3158C69.0021 47.7233 68.8863 48.1223 68.6674 48.4621C68.4484 48.8018 68.1362 49.067 67.7703 49.2239C67.4044 49.3809 67.0014 49.4226 66.6124 49.3436C66.2235 49.2646 65.8661 49.0686 65.5858 48.7805C65.3054 48.4923 65.1147 48.1249 65.0379 47.7251C64.9611 47.3253 65.0016 46.9111 65.1543 46.535C65.307 46.1589 65.565 45.838 65.8956 45.6129C66.2261 45.3879 66.6143 45.2688 67.0107 45.271C67.5383 45.271 68.0443 45.4865 68.4173 45.8699C68.7904 46.2534 69 46.7735 69 47.3158Z" fill="#100C14" fill-opacity="0.18"/>
<path d="M79.79 47.3268C79.79 47.7334 79.6727 48.1308 79.4529 48.4689C79.2332 48.807 78.9209 49.0705 78.5554 49.2261C78.19 49.3817 77.7878 49.4224 77.3999 49.3431C77.0119 49.2637 76.6556 49.0679 76.3759 48.7804C76.0962 48.4929 75.9056 48.1266 75.8285 47.7278C75.7513 47.3291 75.7909 46.9157 75.9423 46.54C76.0937 46.1644 76.35 45.8434 76.6789 45.6175C77.0078 45.3916 77.3945 45.271 77.79 45.271C78.3204 45.271 78.8292 45.4876 79.2042 45.8731C79.5793 46.2587 79.79 46.7816 79.79 47.3268Z" fill="#100C14" fill-opacity="0.18"/>
<path d="M3.99997 62.227C4.0021 62.6346 3.8863 63.0335 3.66736 63.3733C3.44842 63.7131 3.13623 63.9782 2.77034 64.1352C2.40445 64.2922 2.0014 64.3338 1.61243 64.2549C1.22347 64.1759 0.866145 63.9799 0.585792 63.6917C0.30544 63.4035 0.114745 63.0362 0.0379171 62.6364C-0.0389105 62.2366 0.00157121 61.8224 0.154278 61.4463C0.306985 61.0702 0.565021 60.7492 0.895564 60.5242C1.22611 60.2991 1.61427 60.1801 2.01074 60.1823C2.27197 60.1823 2.53063 60.2352 2.77198 60.3379C3.01332 60.4407 3.23259 60.5913 3.41731 60.7812C3.60203 60.9711 3.74859 61.1964 3.84856 61.4445C3.94853 61.6926 3.99997 61.9585 3.99997 62.227Z" fill="#100C14" fill-opacity="0.18"/>
<path d="M14.8599 62.2381C14.8599 62.6446 14.7425 63.0421 14.5228 63.3801C14.303 63.7182 13.9906 63.9817 13.6252 64.1373C13.2597 64.2929 12.8576 64.3336 12.4697 64.2543C12.0817 64.175 11.7253 63.9792 11.4456 63.6917C11.1659 63.4042 10.9755 63.0379 10.8983 62.6391C10.8211 62.2403 10.8607 61.8269 11.0121 61.4513C11.1635 61.0757 11.4199 60.7546 11.7487 60.5287C12.0776 60.3028 12.4643 60.1823 12.8598 60.1823C13.1225 60.1823 13.3825 60.2354 13.6252 60.3387C13.8678 60.442 14.0883 60.5935 14.2741 60.7844C14.4598 60.9753 14.6071 61.2019 14.7076 61.4513C14.8081 61.7007 14.8599 61.9681 14.8599 62.2381Z" fill="#100C14" fill-opacity="0.18"/>
<path d="M25.6799 62.2381C25.6799 62.6446 25.5626 63.0421 25.3429 63.3801C25.1231 63.7182 24.8108 63.9817 24.4453 64.1373C24.0798 64.2929 23.6777 64.3336 23.2898 64.2543C22.9018 64.175 22.5454 63.9792 22.2657 63.6917C21.986 63.4042 21.7955 63.0379 21.7184 62.6391C21.6412 62.2403 21.6808 61.8269 21.8322 61.4513C21.9836 61.0757 22.2399 60.7546 22.5688 60.5287C22.8977 60.3028 23.2844 60.1823 23.6799 60.1823C23.9426 60.1823 24.2026 60.2354 24.4453 60.3387C24.688 60.442 24.9085 60.5935 25.0942 60.7844C25.2799 60.9753 25.4272 61.2019 25.5277 61.4513C25.6282 61.7007 25.6799 61.9681 25.6799 62.2381Z" fill="#100C14" fill-opacity="0.18"/>
<path d="M36.49 62.227C36.4921 62.6341 36.3766 63.0326 36.1581 63.3721C35.9397 63.7117 35.6281 63.9769 35.2628 64.1342C34.8976 64.2915 34.4951 64.3337 34.1064 64.2557C33.7178 64.1776 33.3604 63.9827 33.0796 63.6956C32.7988 63.4086 32.6073 63.0423 32.5292 62.6432C32.4512 62.2441 32.4901 61.8302 32.6412 61.4539C32.7922 61.0777 33.0485 60.7559 33.3777 60.5296C33.7068 60.3032 34.0939 60.1823 34.49 60.1823C34.7521 60.1808 35.012 60.2326 35.2546 60.3347C35.4971 60.4368 35.7177 60.5873 35.9036 60.7773C36.0894 60.9673 36.2369 61.1931 36.3375 61.4419C36.4381 61.6907 36.49 61.9576 36.49 62.227Z" fill="#100C14" fill-opacity="0.18"/>
<path d="M47.31 62.227C47.3122 62.6341 47.1967 63.0326 46.9782 63.3721C46.7597 63.7117 46.4481 63.9769 46.0829 64.1342C45.7176 64.2915 45.3152 64.3337 44.9265 64.2557C44.5378 64.1776 44.1804 63.9827 43.8997 63.6956C43.6189 63.4086 43.4273 63.0423 43.3493 62.6432C43.2712 62.2441 43.3102 61.8302 43.4613 61.4539C43.6123 61.0777 43.8686 60.7559 44.1977 60.5296C44.5269 60.3032 44.914 60.1823 45.31 60.1823C45.5722 60.1808 45.832 60.2326 46.0746 60.3347C46.3171 60.4368 46.5377 60.5873 46.7236 60.7773C46.9094 60.9673 47.0569 61.1931 47.1576 61.4419C47.2582 61.6907 47.31 61.9576 47.31 62.227Z" fill="#100C14" fill-opacity="0.18"/>
<path d="M58.1299 62.227C58.132 62.6346 58.0162 63.0335 57.7972 63.3733C57.5783 63.7131 57.2661 63.9782 56.9002 64.1352C56.5343 64.2922 56.1313 64.3338 55.7423 64.2549C55.3534 64.1759 54.9961 63.9799 54.7157 63.6917C54.4354 63.4035 54.2446 63.0362 54.1678 62.6364C54.091 62.2366 54.1315 61.8224 54.2842 61.4463C54.4369 61.0702 54.6949 60.7492 55.0255 60.5242C55.356 60.2991 55.7442 60.1801 56.1406 60.1823C56.4019 60.1823 56.6605 60.2352 56.9019 60.3379C57.1432 60.4407 57.3625 60.5913 57.5472 60.7812C57.7319 60.9711 57.8785 61.1964 57.9784 61.4445C58.0784 61.6926 58.1299 61.9585 58.1299 62.227Z" fill="#100C14" fill-opacity="0.18"/>
<path d="M69 62.227C69.0021 62.6346 68.8863 63.0335 68.6674 63.3733C68.4484 63.7131 68.1362 63.9782 67.7703 64.1352C67.4044 64.2922 67.0014 64.3338 66.6124 64.2549C66.2235 64.1759 65.8661 63.9799 65.5858 63.6917C65.3054 63.4035 65.1147 63.0362 65.0379 62.6364C64.9611 62.2366 65.0016 61.8224 65.1543 61.4463C65.307 61.0702 65.565 60.7492 65.8956 60.5242C66.2261 60.2991 66.6143 60.1801 67.0107 60.1823C67.272 60.1823 67.5306 60.2352 67.772 60.3379C68.0133 60.4407 68.2326 60.5913 68.4173 60.7812C68.602 60.9711 68.7486 61.1964 68.8486 61.4445C68.9485 61.6926 69 61.9585 69 62.227Z" fill="#100C14" fill-opacity="0.18"/>
<path d="M79.79 62.2381C79.79 62.6446 79.6727 63.0421 79.4529 63.3801C79.2332 63.7182 78.9209 63.9817 78.5554 64.1373C78.19 64.2929 77.7878 64.3336 77.3999 64.2543C77.0119 64.175 76.6556 63.9792 76.3759 63.6917C76.0962 63.4042 75.9056 63.0379 75.8285 62.6391C75.7513 62.2403 75.7909 61.8269 75.9423 61.4513C76.0937 61.0757 76.35 60.7546 76.6789 60.5287C77.0078 60.3028 77.3945 60.1823 77.79 60.1823C78.0527 60.1823 78.3128 60.2354 78.5554 60.3387C78.7981 60.442 79.0185 60.5935 79.2042 60.7844C79.39 60.9753 79.5372 61.2019 79.6377 61.4513C79.7383 61.7007 79.79 61.9681 79.79 62.2381Z" fill="#100C14" fill-opacity="0.18"/>
<g filter="url(#filter0_d_324_18)">
<path d="M162 107.797C165.314 107.797 168 105.036 168 101.629C168 98.2233 165.314 95.462 162 95.462C158.686 95.462 156 98.2233 156 101.629C156 105.036 158.686 107.797 162 107.797Z" stroke="#6E1DF2" stroke-opacity="0.12" stroke-width="2" stroke-linecap="round" stroke-linejoin="round" shape-rendering="crispEdges"/>
</g>
<g filter="url(#filter1_d_324_18)">
<path d="M1307.55 166.535L1299.07 150.738L1291.55 167.185L1307.55 166.535Z" stroke="#6E1DF2" stroke-opacity="0.12" stroke-width="2" stroke-linecap="round" stroke-linejoin="round" shape-rendering="crispEdges"/>
</g>
<g filter="url(#filter2_d_324_18)">
<path d="M1154 276.147C1157.57 276.147 1157.57 284.37 1161.14 284.37C1164.7 284.37 1164.71 276.147 1168.28 276.147C1171.84 276.147 1171.85 284.37 1175.43 284.37C1179 284.37 1179 276.147 1182.56 276.147C1186.13 276.147 1186.14 284.37 1189.71 284.37C1193.29 284.37 1193.28 276.147 1196.85 276.147C1200.43 276.147 1200.43 284.37 1204 284.37" stroke="#6E1DF2" stroke-opacity="0.3" stroke-width="2" stroke-linecap="round" stroke-linejoin="round" shape-rendering="crispEdges"/>
</g>
<g filter="url(#filter3_d_324_18)">
<path d="M266 204.485C269.574 204.485 269.574 212.708 273.139 212.708C276.703 212.708 276.713 204.485 280.277 204.485C283.842 204.485 283.851 212.708 287.426 212.708C291 212.708 291 204.485 294.564 204.485C298.129 204.485 298.139 212.708 301.713 212.708C305.287 212.708 305.277 204.485 308.852 204.485C312.426 204.485 312.426 212.708 316 212.708" stroke="#6E1DF2" stroke-opacity="0.3" stroke-width="2" stroke-linecap="round" stroke-linejoin="round" shape-rendering="crispEdges"/>
</g>
<defs>
<filter id="filter0_d_324_18" x="151" y="90.462" width="22" height="22.3347" filterUnits="userSpaceOnUse" color-interpolation-filters="sRGB">
<feFlood flood-opacity="0" result="BackgroundImageFix"/>
<feColorMatrix in="SourceAlpha" type="matrix" values="0 0 0 0 0 0 0 0 0 0 0 0 0 0 0 0 0 0 127 0" result="hardAlpha"/>
<feOffset/>
<feGaussianBlur stdDeviation="2"/>
<feComposite in2="hardAlpha" operator="out"/>
<feColorMatrix type="matrix" values="0 0 0 0 0.431373 0 0 0 0 0.113725 0 0 0 0 0.94902 0 0 0 0.1 0"/>
<feBlend mode="normal" in2="BackgroundImageFix" result="effect1_dropShadow_324_18"/>
<feBlend mode="normal" in="SourceGraphic" in2="effect1_dropShadow_324_18" result="shape"/>
</filter>
<filter id="filter1_d_324_18" x="1286.55" y="145.738" width="26" height="26.4463" filterUnits="userSpaceOnUse" color-interpolation-filters="sRGB">
<feFlood flood-opacity="0" result="BackgroundImageFix"/>
<feColorMatrix in="SourceAlpha" type="matrix" values="0 0 0 0 0 0 0 0 0 0 0 0 0 0 0 0 0 0 127 0" result="hardAlpha"/>
<feOffset/>
<feGaussianBlur stdDeviation="2"/>
<feComposite in2="hardAlpha" operator="out"/>
<feColorMatrix type="matrix" values="0 0 0 0 0.431373 0 0 0 0 0.113725 0 0 0 0 0.94902 0 0 0 0.1 0"/>
<feBlend mode="normal" in2="BackgroundImageFix" result="effect1_dropShadow_324_18"/>
<feBlend mode="normal" in="SourceGraphic" in2="effect1_dropShadow_324_18" result="shape"/>
</filter>
<filter id="filter2_d_324_18" x="1149" y="271.147" width="60" height="18.2231" filterUnits="userSpaceOnUse" color-interpolation-filters="sRGB">
<feFlood flood-opacity="0" result="BackgroundImageFix"/>
<feColorMatrix in="SourceAlpha" type="matrix" values="0 0 0 0 0 0 0 0 0 0 0 0 0 0 0 0 0 0 127 0" result="hardAlpha"/>
<feOffset/>
<feGaussianBlur stdDeviation="2"/>
<feComposite in2="hardAlpha" operator="out"/>
<feColorMatrix type="matrix" values="0 0 0 0 0.431373 0 0 0 0 0.113725 0 0 0 0 0.94902 0 0 0 0.1 0"/>
<feBlend mode="normal" in2="BackgroundImageFix" result="effect1_dropShadow_324_18"/>
<feBlend mode="normal" in="SourceGraphic" in2="effect1_dropShadow_324_18" result="shape"/>
</filter>
<filter id="filter3_d_324_18" x="261" y="199.485" width="60" height="18.2231" filterUnits="userSpaceOnUse" color-interpolation-filters="sRGB">
<feFlood flood-opacity="0" result="BackgroundImageFix"/>
<feColorMatrix in="SourceAlpha" type="matrix" values="0 0 0 0 0 0 0 0 0 0 0 0 0 0 0 0 0 0 127 0" result="hardAlpha"/>
<feOffset/>
<feGaussianBlur stdDeviation="2"/>
<feComposite in2="hardAlpha" operator="out"/>
<feColorMatrix type="matrix" values="0 0 0 0 0.431373 0 0 0 0 0.113725 0 0 0 0 0.94902 0 0 0 0.1 0"/>
<feBlend mode="normal" in2="BackgroundImageFix" result="effect1_dropShadow_324_18"/>
<feBlend mode="normal" in="SourceGraphic" in2="effect1_dropShadow_324_18" result="shape"/>
</filter>
</defs>
</svg>
